<svg width="141" height="113" viewBox="0 0 141 113" fill="none" xmlns="http://www.w3.org/2000/svg">
<g clip-path="url(#clip0_95_17)">
<path d="M49.35 56.5C56.8291 56.5 64.0019 53.5237 69.2904 48.2258C74.5789 42.9279 77.55 35.7424 77.55 28.25C77.55 20.7576 74.5789 13.5721 69.2904 8.27423C64.0019 2.97633 56.8291 0 49.35 0C41.8709 0 34.6981 2.97633 29.4096 8.27423C24.1211 13.5721 21.15 20.7576 21.15 28.25C21.15 35.7424 24.1211 42.9279 29.4096 48.2258C34.6981 53.5237 41.8709 56.5 49.35 56.5ZM39.2817 67.0938C17.5809 67.0938 0 84.7059 0 106.445C0 110.065 2.93016 113 6.54328 113H71.1169C70.4339 111.058 70.3017 108.939 70.8084 106.864L74.1131 93.6002C74.73 91.1063 76.0078 88.8551 77.8144 87.0453L86.693 78.151C79.6209 71.3092 70.0153 67.0938 59.3963 67.0938H39.2597H39.2817ZM135.228 52.0197C131.791 48.5768 126.217 48.5768 122.758 52.0197L116.281 58.5084L131.923 74.1783L138.4 67.6897C141.837 64.2467 141.837 58.6629 138.4 55.1979L135.228 52.0197ZM82.8155 92.0332C81.9122 92.9381 81.2733 94.0637 80.9648 95.3217L77.6602 108.586C77.3517 109.8 77.7042 111.058 78.5855 111.941C79.4667 112.823 80.7225 113.177 81.9342 112.868L95.175 109.557C96.4088 109.248 97.5544 108.608 98.4577 107.703L126.922 79.1662L111.28 63.4963L82.8155 92.0332Z" fill="#31506A"/>
</g>
<defs>
<clipPath id="clip0_95_17">
<rect width="141" height="113" fill="white"/>
</clipPath>
</defs>
</svg>