<svg width="141" height="141" viewBox="0 0 141 141" fill="none" xmlns="http://www.w3.org/2000/svg">
<path d="M52.875 26.4375V29.7422L26.4375 26.4375C21.5631 26.4375 17.625 30.3756 17.625 35.25C17.625 40.1244 21.5631 44.0625 26.4375 44.0625L52.875 40.7578L61.4121 39.6838L61.6875 39.6562L61.9629 39.6838L70.5 40.7578L96.9375 44.0625C101.812 44.0625 105.75 40.1244 105.75 35.25C105.75 30.3756 101.812 26.4375 96.9375 26.4375L70.5 29.7422V26.4375C70.5 21.5631 66.5619 17.625 61.6875 17.625C56.8131 17.625 52.875 21.5631 52.875 26.4375ZM8.8125 70.5C3.93809 70.5 0 74.4381 0 79.3125V96.9375C0 101.812 3.93809 105.75 8.8125 105.75H36.3791C41.942 113.736 51.2227 118.969 61.6875 118.969C72.1523 118.969 81.433 113.736 86.9959 105.75H96.9375C101.812 105.75 105.75 109.688 105.75 114.562C105.75 119.437 109.688 123.375 114.562 123.375H132.188C137.062 123.375 141 119.437 141 114.562C141 90.218 121.282 70.5 96.9375 70.5H88.125L81.9012 64.2762C80.2488 62.6238 78.0182 61.6875 75.6773 61.6875H70.5V49.6254L61.6875 48.5238L52.875 49.6254V61.6875H47.7252C45.3844 61.6875 43.1537 62.6238 41.5014 64.2762L35.25 70.5H8.8125Z" fill="#31506A"/>
</svg>